<?xml version="1.0" encoding="UTF-8" standalone="no"?>
<!-- Created with Inkscape (http://www.inkscape.org/) -->

<svg
   version="1.1"
   id="svg9"
   width="1350"
   height="629"
   viewBox="0 0 1350 629"
   xmlns="http://www.w3.org/2000/svg"
   xmlns:svg="http://www.w3.org/2000/svg">
  <defs
     id="defs13" />
  <g
     id="g15">
    <path
       style="fill:#000000"
       d="m 641.64975,278.56874 c -0.004,-0.70019 2.49004,-13.01211 5.54176,-27.35983 l 5.54859,-26.08676 -13.10262,-46.91324 c -7.20644,-25.80228 -13.33055,-47.70074 -13.60915,-48.66324 -0.46982,-1.62315 0.87423,-1.75 18.5418,-1.75 18.92949,0 19.05166,0.014 19.5805,2.25 2.53198,10.70534 11.65253,55.37498 12.15002,59.50707 l 0.63294,5.25706 3.11149,-5.98789 c 1.71132,-3.29334 10.98649,-18.35792 20.61149,-33.47684 l 17.5,-27.48895 19.83333,-0.0302 c 12.84917,-0.0196 19.71547,0.32347 19.49857,0.97419 -0.1842,0.55244 -15.8592,22.43272 -34.83337,48.62286 l -34.49853,47.61842 -5.5661,27.12714 -5.5661,27.12714 -17.6839,0.27307 c -13.79163,0.21297 -17.6854,-0.007 -17.69072,-1 z m 130.00682,-0.083 c 0,-0.72045 5.625,-27.95927 12.5,-60.53071 6.875,-32.57144 12.5,-59.65698 12.5,-60.19009 0,-0.59495 -8.1103,-0.96929 -21,-0.96929 -19.3318,0 -21.0003,-0.13902 -21.0041,-1.75 0,-0.9625 1.2013,-7.4875 2.6744,-14.5 l 2.6785,-12.75 h 61.3256 c 33.7291,0 61.3256,0.21112 61.3256,0.46916 0,0.25803 -1.35,6.6457 -3,14.19482 -1.65,7.54911 -3,13.86299 -3,14.03084 0,0.16785 -9.8627,0.30518 -21.9171,0.30518 h -21.9172 l -1.1316,5.25 c -0.6224,2.8875 -6.3044,29.775 -12.6267,59.75 -6.3222,29.975 -11.7306,55.2875 -12.0186,56.25 -0.4726,1.57972 -2.2198,1.75 -17.9562,1.75 -13.7046,0 -17.4326,-0.28012 -17.4326,-1.30991 z m -660,-0.81998 c 0,-1.19412 12.74646,-62.12558 13.6227,-65.12011 0.46681,-1.59532 -0.51034,-1.75 -11.05531,-1.75 h -11.56739 l 0.0424,-2.75 c 0.0233,-1.5125 0.61982,-5.225 1.3256,-8.25 l 1.28322,-5.5 34.17441,0.007 c 18.79592,0.004 78.99948,0.11638 133.78569,0.25 l 99.61126,0.243 -0.67234,3.75 c -0.36979,2.0625 -1.10149,5.39765 -1.62599,7.41144 l -0.95364,3.66143 -110.90226,0.33857 c -60.99624,0.18621 -111.17924,0.61568 -111.51778,0.95437 -0.33854,0.3387 -3.8366,15.7512 -7.77345,34.25 l -7.15792,33.63419 h -10.3096 c -6.9965,0 -10.3096,-0.3631 -10.3096,-1.12989 z m 276.5,-0.30092 c -7.6015,-1.77158 -13.5,-4.26962 -13.5,-5.71731 0,-2.60741 2.3843,-14.42266 3.06932,-15.20985 0.41064,-0.47188 3.68887,0.5905 7.28495,2.36084 4.58905,2.25919 8.41767,3.34971 12.84203,3.65787 7.22555,0.50327 10.63335,-0.82124 12.58496,-4.89137 2.54098,-5.2993 -0.73179,-10.30571 -10.325,-15.7944 -11.93852,-6.83052 -17.11265,-15.20899 -16.22458,-26.27243 0.57209,-7.12711 2.30939,-11.08977 6.85467,-15.63504 8.68704,-8.68705 25.88483,-11.32954 42.43051,-6.51957 3.0883,0.89779 5.82345,2.17533 6.07811,2.83897 0.42003,1.09458 -2.21149,15.56295 -2.96824,16.3197 -0.17561,0.17562 -2.86473,-0.80641 -5.97582,-2.18228 -13.50113,-5.97084 -24.65091,-3.76368 -24.65091,4.87978 0,4.38025 2.57374,7.46788 10.7531,12.90016 8.16053,5.41976 12.62686,9.95216 14.69622,14.91362 1.8609,4.46167 2.00647,12.51525 0.32836,18.1661 -1.66694,5.61319 -8.989,12.80193 -15.31286,15.03404 -6.66469,2.3524 -20.38678,2.91727 -27.96482,1.15117 z m 62.90107,-0.47462 c -7.14867,-3.24654 -10.40107,-9.98903 -10.40107,-21.56229 0,-12.49727 4.2614,-22.83144 12.57463,-30.49431 8.12146,-7.4861 19.64546,-10.75173 34.24872,-9.70529 10.78696,0.77297 20.17665,2.61628 20.17665,3.96091 0,0.55961 -1.83605,9.60999 -4.0801,20.11194 -2.24406,10.50196 -4.62559,23.36947 -5.29229,28.59447 l -1.21219,9.5 h -9.95771 -9.95771 l 0.12031,-3.82047 0.12031,-3.82047 -3.12031,3.01979 c -6.30345,6.10037 -15.42333,7.75619 -23.21924,4.21572 z m 22.97893,-16.91589 c 3.7473,-3.48535 6.08365,-8.80099 8.58693,-19.53687 2.73369,-11.72405 2.74523,-11.64598 -1.71693,-11.61985 -9.40082,0.0551 -16.94315,7.36598 -19.29714,18.70511 -2.82464,13.60624 3.91995,20.36411 12.42714,12.45161 z m -325.65628,16.57132 c -2.55773,-1.92769 -4.72372,-8.16517 -4.72372,-13.60305 0,-11.37584 5.89988,-21.13684 15.19196,-25.13418 4.759,-2.04727 6.39551,-2.22168 16.61465,-1.77071 6.23463,0.27513 11.71527,0.89572 12.17921,1.37909 0.46394,0.48337 -0.68047,8.07885 -2.54312,16.87885 -1.86266,8.8 -3.39926,17.6875 -3.41467,19.75 l -0.028,3.75 h -7.10841 -7.10841 l 0.68477,-2.75 0.68476,-2.75 -2.88107,2.75 c -2.53831,2.42282 -3.6549,2.75 -9.38523,2.75 -3.6521,0 -7.23142,-0.54812 -8.16269,-1.25 z m 17.70759,-11 c 2.26206,-2.27514 3.77122,-5.25571 5.03128,-9.93669 2.17454,-8.07816 1.64932,-10.29407 -2.22191,-9.37425 -6.14303,1.45961 -10.62439,6.85471 -11.79989,14.20585 -0.54645,3.41733 -0.29504,4.50084 1.44902,6.2449 2.81952,2.81952 3.74383,2.67982 7.5415,-1.13981 z m 27.09437,9.29966 c -2.10056,-4.06204 -1.94691,-6.4421 1.48244,-22.9632 1.64553,-7.92745 2.99188,-14.56495 2.99188,-14.75 0,-0.18505 2.925,-0.33646 6.5,-0.33646 5.52058,0 6.50128,0.26369 6.50848,1.75 0.005,0.9625 -1.21437,7.74033 -2.70896,15.06184 -2.33411,11.43403 -2.51281,13.4383 -1.26679,14.20839 0.79786,0.4931 2.46689,0.64149 3.70896,0.32975 2.61387,-0.65604 2.61485,-0.65156 1.1396,5.2072 l -1.11872,4.44282 h -7.8556 c -7.68766,0 -7.88823,-0.0631 -9.38129,-2.95034 z m 28.06288,0.70034 c -0.39671,-1.98551 -2.63708,-34.27251 -2.60211,-37.5 0.009,-0.87041 1.98744,-1.25 6.51355,-1.25 h 6.5 l 0.0824,12.75 0.0824,12.75 6.0812,-12.75 6.0812,-12.75 h 6.24014 6.24013 l 0.64353,10.75 c 0.35395,5.9125 0.73475,11.86824 0.84623,13.23498 0.13114,1.6077 2.01337,-2.09913 5.3316,-10.5 l 5.1289,-12.98498 6.6211,-0.29569 c 3.6416,-0.16263 6.6211,-0.0458 6.6211,0.25952 0,0.30537 -4.50214,9.55093 -10.00477,20.54569 l -10.00469,19.99048 h -6.99524 -6.99523 l -0.0131,-13.25 -0.0131,-13.25 -6.14233,13.25 -6.14232,13.25 h -6.82554 c -6.27847,0 -6.86157,-0.18034 -7.27508,-2.25 z m 62.46229,-0.41248 c -2.84646,-3.61869 -3.33713,-6.11467 -2.86825,-14.59048 0.46124,-8.33773 2.58157,-13.45054 7.59883,-18.32325 5.62395,-5.46191 10.44285,-6.75385 23.2269,-6.22713 6.07383,0.25025 11.53159,0.94326 12.12836,1.54003 0.78003,0.78003 0.22365,5.25619 -1.97935,15.92417 -1.6854,8.16152 -3.36138,16.97664 -3.7244,19.58914 l -0.66003,4.75 h -6.38645 c -5.79434,0 -6.38646,-0.19216 -6.38646,-2.07258 v -2.07258 l -2.63486,2.07258 c -2.07825,1.63475 -4.06976,2.07258 -9.42742,2.07258 -6.16487,0 -6.98609,-0.24604 -8.88687,-2.66248 z m 19.72084,-10.1737 c 2.34039,-2.74439 5.1853,-10.8977 5.53184,-15.85385 0.18,-2.57438 -0.0779,-2.7974 -3.07633,-2.66004 -4.59456,0.21048 -8.07915,2.8108 -10.28903,7.67803 -4.95297,10.90884 0.8848,18.98405 7.83352,10.83586 z m 22.45965,10.58618 c 0.25547,-1.2375 2.18683,-10.4625 4.29191,-20.5 l 3.82742,-18.25 h 6.32467 c 6.11329,0 6.32466,0.0852 6.32466,2.55089 v 2.55089 l 3.50638,-2.67445 c 3.67877,-2.80593 10.39021,-4.17207 14.91592,-3.03619 3.14891,0.79033 5.57935,5.28663 5.57256,10.3092 -0.004,3.25373 -3.9871,24.28872 -5.59484,29.54966 -0.43696,1.42987 -1.71151,1.75 -6.96741,1.75 -3.60589,0 -6.43261,-0.43782 -6.43261,-0.99632 0,-0.54797 1.12269,-6.28547 2.49486,-12.75 2.8932,-13.63031 3.01564,-15.58511 1.07697,-17.19406 -2.049,-1.70053 -6.81672,0.98252 -9.52085,5.35789 -1.19527,1.934 -3.09824,8.35381 -4.30528,14.52424 l -2.16318,11.05825 h -6.90784 c -6.63464,0 -6.88946,-0.089 -6.44334,-2.25 z m 183.41333,1.48408 c -0.26035,-0.42126 1.93064,-11.96738 4.86888,-25.65805 2.93824,-13.69068 5.64192,-27.07101 6.00819,-29.73408 l 0.66594,-4.84195 h 10.00685 10.00686 l -0.3507,4.39072 -0.35069,4.39071 3.69026,-3.33414 c 2.02965,-1.83378 5.09134,-4.05867 6.80377,-4.9442 4.3612,-2.25527 12.03404,-2.97896 16.37934,-1.54488 3.8448,1.2689 8.62663,6.52313 8.62663,9.47885 0,1.29671 1.29917,0.58022 5.02976,-2.77391 11.47274,-10.31498 26.70719,-10.1225 32.2872,0.40793 2.47252,4.66608 1.82274,11.67134 -3.26191,35.16651 -2.23028,10.30568 -4.05505,18.96818 -4.05505,19.25 0,0.28183 -4.5,0.51241 -10,0.51241 -8.63977,0 -10,-0.22519 -10,-1.65553 0,-0.91055 1.8,-10.12016 4,-20.4658 2.2,-10.34565 4,-19.71528 4,-20.82141 0,-1.10614 -1.09071,-2.72582 -2.4238,-3.59929 -2.15743,-1.4136 -2.73441,-1.42594 -5.25,-0.11233 -3.06726,1.60169 -7.12902,5.67109 -9.67037,9.68857 -1.19224,1.88476 -8.65583,33.34546 -8.65583,36.4863 0,0.63139 -19.52222,0.62394 -20.15385,-0.008 -0.26795,-0.26796 1.4543,-9.60546 3.82723,-20.75 2.37293,-11.14455 4.08685,-21.26233 3.80871,-22.48396 -1.704,-7.48421 -11.74637,-3.13329 -17.39677,7.53727 -0.67456,1.27386 -2.787,9.55732 -4.69433,18.40767 -1.90732,8.85036 -3.70212,16.4706 -3.98844,16.93388 -0.65019,1.05203 -19.11079,1.12341 -19.75788,0.0764 z m -307.98968,-47.0628 c -1.92339,-2.12532 -2.2017,-8.22455 -0.45499,-9.97126 0.66,-0.66 3.56917,-1.2 6.46482,-1.2 4.18171,0 5.47778,0.39792 6.3,1.93426 1.62656,3.03927 1.21745,6.88347 -0.96482,9.06574 -2.61443,2.61443 -9.04611,2.71152 -11.34501,0.17126 z"
       id="path823" />
  </g>
</svg>
